<svg xmlns="http://www.w3.org/2000/svg" width="24" height="24" viewBox="0 0 24 24" fill="none">
  <path d="M4.8 6.8C4.8 5.9 5.5 5.2 6.4 5.2H10.8C11.6 5.2 12.3 5.6 12.9 6.2C13.5 5.6 14.2 5.2 15 5.2H19.4C20.3 5.2 21 5.9 21 6.8V17.9C21 18.8 20.3 19.5 19.4 19.5H15.2C14.2 19.5 13.4 19.9 12.9 20.5C12.4 19.9 11.6 19.5 10.6 19.5H6.4C5.5 19.5 4.8 18.8 4.8 17.9V6.8Z" stroke="currentColor" stroke-width="2.2" stroke-linecap="round" stroke-linejoin="round"/>
  <path d="M12.9 6.4V20.3" stroke="currentColor" stroke-width="2.2" stroke-linecap="round"/>
</svg>
