<!--
  Purpose: SVG icon asset for "settings". / 目的: 「settings」用のSVGアイコン資産。
  Responsibilities: provide vector paths with currentColor. / 役割: currentColorで塗るベクターパスを提供。
  Inputs: currentColor from AppIcon. / 入力: AppIconからのcurrentColor。
  Outputs: scalable vector graphic. / 出力: スケーラブルなSVG。
  Dependencies: none (static asset). / 依存: なし（静的資産）。
  Side effects: none. / 副作用: なし。
  Edge cases: none. / 例外: なし。
-->
<svg xmlns="http://www.w3.org/2000/svg" width="24" height="24" viewBox="0 0 24 24" fill="none">
  <path d="M12 14.7C13.5 14.7 14.7 13.5 14.7 12C14.7 10.5 13.5 9.3 12 9.3C10.5 9.3 9.3 10.5 9.3 12C9.3 13.5 10.5 14.7 12 14.7Z" stroke="currentColor" stroke-width="2.2" stroke-linecap="round" stroke-linejoin="round"/>
  <path d="M19.6 12C19.6 12.4 19.6 12.7 19.5 13.1L21 14.2L19.6 16.6L17.9 15.9C17.4 16.3 16.8 16.6 16.2 16.8L16 18.6H8L7.8 16.8C7.2 16.6 6.6 16.3 6.1 15.9L4.4 16.6L3 14.2L4.5 13.1C4.4 12.7 4.4 12.4 4.4 12C4.4 11.6 4.4 11.3 4.5 10.9L3 9.8L4.4 7.4L6.1 8.1C6.6 7.7 7.2 7.4 7.8 7.2L8 5.4H16L16.2 7.2C16.8 7.4 17.4 7.7 17.9 8.1L19.6 7.4L21 9.8L19.5 10.9C19.6 11.3 19.6 11.6 19.6 12Z" stroke="currentColor" stroke-width="2.2" stroke-linecap="round" stroke-linejoin="round"/>
</svg>
