<!--
  Purpose: SVG icon asset for "night". / 目的: 「night」用のSVGアイコン資産。
  Responsibilities: provide vector paths with currentColor. / 役割: currentColorで塗るベクターパスを提供。
  Inputs: currentColor from AppIcon. / 入力: AppIconからのcurrentColor。
  Outputs: scalable vector graphic. / 出力: スケーラブルなSVG。
  Dependencies: none (static asset). / 依存: なし（静的資産）。
  Side effects: none. / 副作用: なし。
  Edge cases: none. / 例外: なし。
-->
<svg xmlns="http://www.w3.org/2000/svg" width="24" height="24" viewBox="0 0 24 24" fill="none">
  <path d="M15.8 6.2C14.9 5.8 13.9 5.6 12.8 5.6C9.1 5.6 6.1 8.6 6.1 12.3C6.1 16 9.1 19 12.8 19C15.6 19 18 17.3 19 14.9C18.2 15.2 17.3 15.4 16.4 15.4C12.8 15.4 9.9 12.5 9.9 8.9C9.9 7.9 10.1 7 10.4 6.2C11.1 6 11.9 5.9 12.8 5.9C13.9 5.9 14.9 6 15.8 6.2Z" stroke="currentColor" stroke-width="2.2" stroke-linecap="round" stroke-linejoin="round"/>
  <path d="M18.8 6.2L19.3 7.4L20.5 7.9L19.3 8.4L18.8 9.6L18.3 8.4L17.1 7.9L18.3 7.4L18.8 6.2Z" fill="currentColor"/>
</svg>
